<svg height="512pt" viewBox="0 -56 512 511" width="512pt" xmlns="http://www.w3.org/2000/svg"><path d="m330.035156 271.5c-9.445312 0-17.132812 7.6875-17.132812 17.132812 0 9.449219 7.6875 17.132813 17.132812 17.132813 9.445313 0 17.136719-7.683594 17.136719-17.132813 0-9.445312-7.691406-17.132812-17.136719-17.132812zm0 0"/><path d="m201.503906 271.5c-9.449218 0-17.136718 7.6875-17.136718 17.132812 0 9.449219 7.6875 17.132813 17.136718 17.132813 9.445313 0 17.132813-7.683594 17.132813-17.132813 0-9.445312-7.6875-17.132812-17.132813-17.132812zm0 0"/><path d="m338.066406 142.96875h-163.957031l6.5625 72.171875c1.300781 14.289063 14.515625 26.359375 28.863281 26.359375h116.851563c14.347656 0 27.5625-12.070312 28.859375-26.359375l4.414062-48.53125c.582032-6.390625-1.324218-12.347656-5.367187-16.773437-4.042969-4.429688-9.804688-6.867188-16.226563-6.867188zm0 0"/><path d="m456.832031.5h-401.664062c-30.421875 0-55.167969 24.746094-55.167969 55.167969v289.199219c0 30.417968 24.746094 55.167968 55.167969 55.167968h401.664062c30.421875 0 55.167969-24.75 55.167969-55.167968v-289.199219c0-30.421875-24.746094-55.167969-55.167969-55.167969zm-67.296875 168.828125-4.410156 48.527344c-1.390625 15.3125-9.132812 29.136719-20.390625 38.917969 7.714844 8.398437 12.4375 19.585937 12.4375 31.859374 0 25.988282-21.148437 47.132813-47.136719 47.132813-25.988281 0-47.132812-21.144531-47.132812-47.132813 0-6.042968 1.15625-11.820312 3.238281-17.132812h-40.742187c2.082031 5.3125 3.238281 11.089844 3.238281 17.132812 0 25.988282-21.144531 47.132813-47.136719 47.132813-25.988281 0-47.132812-21.144531-47.132812-47.132813 0-13.335937 5.578124-25.386718 14.507812-33.96875-9.996094-9.613281-16.785156-22.566406-18.082031-36.808593l-8.03125-88.339844c0-.015625 0-.027344-.003907-.039063l-3.15625-34.710937h-18.429687c-8.285156 0-15-6.714844-15-15s6.714844-15 15-15h32.132813c7.757812 0 14.234374 5.914063 14.9375 13.640625l3.140624 34.558594h166.6875c14.953126 0 28.582032 5.910156 38.378907 16.640625 9.792969 10.726562 14.445312 24.835937 13.085937 39.722656zm0 0"/></svg>