<?xml version="1.0" encoding="iso-8859-1"?>
<!-- Generator: Adobe Illustrator 19.0.0, SVG Export Plug-In . SVG Version: 6.00 Build 0)  -->
<svg version="1.1" id="Capa_1" xmlns="http://www.w3.org/2000/svg" xmlns:xlink="http://www.w3.org/1999/xlink" x="0px" y="0px"
	 viewBox="0 0 512 512" style="enable-background:new 0 0 512 512;" xml:space="preserve">
<g>
	<g>
		<path d="M424.163,147.28L286.317,4.51C283.534,1.628,279.699,0,275.692,0h-39.385c-4.006,0-7.841,1.628-10.625,4.51L87.837,147.28
			c-2.658,2.753-4.144,6.432-4.144,10.259v310.154C83.692,492.124,103.569,512,128,512h256c24.431,0,44.308-19.876,44.308-44.308
			V157.538C428.308,153.711,426.822,150.033,424.163,147.28z M243.341,329.846h25.318c22.105,0,40.088,17.983,40.088,40.088v12.659
			c0,21.397-16.851,38.931-37.978,40.032v10.606c0,8.157-6.613,14.769-14.769,14.769c-8.157,0-14.769-6.613-14.769-14.769v-10.605
			c-21.128-1.101-37.978-18.635-37.978-40.032c0-8.156,6.613-14.769,14.769-14.769s14.769,6.613,14.769,14.769
			c0,5.817,4.733,10.549,10.549,10.549h25.318c5.817,0,10.549-4.733,10.549-10.549v-12.659c0-5.817-4.733-10.549-10.549-10.549
			h-25.318c-22.105,0-40.088-17.983-40.088-40.088v-12.659c0-21.397,16.851-38.931,37.978-40.031V256
			c0-8.157,6.613-14.769,14.769-14.769c8.157,0,14.769,6.613,14.769,14.769v10.605c21.128,1.101,37.978,18.635,37.978,40.031
			c0,8.157-6.613,14.769-14.769,14.769s-14.769-6.613-14.769-14.769c0-5.817-4.733-10.549-10.549-10.549h-25.318
			c-5.817,0-10.549,4.733-10.549,10.549v12.659C232.792,325.113,237.524,329.846,243.341,329.846z M289.422,192h-66.845
			c-22.29,0-40.423-18.134-40.423-40.424v-0.528c0-13.026,6.328-25.323,16.928-32.894c13.527-9.662,29.464-14.769,46.088-14.769
			h18.598c17.169,0,33.793,5.033,48.078,14.557c11.271,7.514,18.001,20.087,18.001,33.634C329.846,173.866,311.713,192,289.422,192z
			"/>
	</g>
</g>
<g>
</g>
<g>
</g>
<g>
</g>
<g>
</g>
<g>
</g>
<g>
</g>
<g>
</g>
<g>
</g>
<g>
</g>
<g>
</g>
<g>
</g>
<g>
</g>
<g>
</g>
<g>
</g>
<g>
</g>
</svg>
