<svg id="Capa_1" enable-background="new 0 0 512 512" height="512" viewBox="0 0 512 512" width="512" xmlns="http://www.w3.org/2000/svg"><g><path d="m0 497c0 8.28 6.72 15 15 15h482c8.28 0 15-6.72 15-15v-298.92h-512zm165.52-159.81c6.52-5.1 15.95-3.96 21.05 2.56l35.99 45.94 104.63-94.34c6.15-5.55 15.64-5.06 21.18 1.09 5.55 6.16 5.06 15.64-1.09 21.19l-116.57 105.1c-6.405 5.781-16.471 5.002-21.85-1.89l-45.9-58.59c-5.11-6.52-3.96-15.95 2.56-21.06z"/><path d="m497 58c-2.107 0-21.336 0-51 0v-43c0-8.284-6.716-15-15-15h-84.667c-8.284 0-15 6.716-15 15v43c-48.706 0-101.963 0-150.667 0v-43c0-8.284-6.716-15-15-15h-84.666c-8.284 0-15 6.716-15 15v43c-29.803 0-49.065 0-51 0-8.28 0-15 6.72-15 15v95.08h512v-95.08c0-8.28-6.72-15-15-15z"/></g></svg>